<svg class="icon" viewBox="0 0 1024 1024" xmlns="http://www.w3.org/2000/svg" width="200" height="200"><path d="M850.2 98.1H175.8C132.8 98.1 98 133 98 176v674.5c0 43 34.8 77.8 77.8 77.8h674.4c43 0 77.8-34.8 77.8-77.8V176c0-43-34.8-77.9-77.8-77.9M407.5 777.2c0 5.6-2.4 8-8 8h-73.6c-5.6 0-8-2.4-8-8V348.4h-1.6l-83.2 58.4c-5.6 4-8.8 2.4-8.8-4.8v-81.6c0-4 1.6-8 5.6-11.2l87.2-63.2q6-4.8 14.4-4.8h68c5.6 0 8 2.4 8 8zm149.4-48.5c0 24.1-4 36.7-17.6 44.6s-32.4 9.4-58.7 9.4c-1.4-13.3-7.9-34.6-14-47.9 12.6.7 27.4.7 32 .7 5-.4 6.8-1.8 6.8-6.8v-65.9l-34.6 8.3-12.2-50c13.7-2.5 29.5-5.8 46.8-9.4v-56.9h-40v-48.2h40v-65.2h51.5v65.2h41.8v48.2h-41.8v45l38.5-9 6.1 47.9c-14.8 4-29.5 7.6-44.6 11.5zm244.8-117h-47.5v171h-51.8v-171h-39.2c-2.2 58-11.9 119.2-45 173.5-10.1-11.5-28.4-25.2-42.5-33.8 32-57.6 36-118.4 36-170.3V475.6c52.2-6.8 108-18.7 147.2-32.4l31 44.3C752 499 706.7 508 663.5 513.8V562h138.2z" fill="#ffa64d"/></svg>