<svg class="icon" viewBox="0 0 1024 1024" xmlns="http://www.w3.org/2000/svg" width="200" height="200"><defs><linearGradient id="a" x1="0%" y1="0%" x2="100%" y2="100%"><stop offset="0%" style="stop-color:gold;stop-opacity:1"/><stop offset="100%" style="stop-color:#ff6b35;stop-opacity:1"/></linearGradient><linearGradient id="b" x1="0%" y1="0%" x2="100%" y2="100%"><stop offset="0%" style="stop-color:#a855f7;stop-opacity:1"/><stop offset="100%" style="stop-color:#ec4899;stop-opacity:1"/></linearGradient><linearGradient id="c" x1="0%" y1="0%" x2="100%" y2="100%"><stop offset="0%" style="stop-color:#38bdf8;stop-opacity:1"/><stop offset="100%" style="stop-color:#818cf8;stop-opacity:1"/></linearGradient></defs><path fill="url(#a)" d="m377.19 680.397-45.926-159.079-158.208-45.465a42.496 42.496 0 0 1-13.158-75.264l141.619-102.912V127.59a42.496 42.496 0 0 1 67.993-33.638l131.84 97.024 161.178-57.856a42.496 42.496 0 0 1 56.115 55.757l-58.265 160.717 97.382 132.198a42.496 42.496 0 0 1-33.997 67.584l-170.957 3.43-101.632 141.159a42.496 42.496 0 0 1-73.984-13.568m-111.82-259.43 127.539 37.427 37.427 127.59L512 472.422h139.469l-78.695-110.08 46.388-127.59-127.642 46.336-108.8-81.664-3.84 140.8-113.51 80.691z"/><path fill="url(#b)" d="M892.98 935.526a42.5 42.5 0 0 1-30.209-12.339l-255.13-255.13a42.7 42.7 0 0 1 60.417-60.415l255.13 255.18a42.496 42.496 0 0 1-30.209 72.704m-616.5-276.428-45.056 82.534-82.534 45.056 82.483 45.056 45.056 82.534 45.056-82.534 82.534-45.056-82.483-45.056z"/><path fill="url(#c)" d="m531.61 786.893-22.528 41.267-41.268 22.528 41.268 22.528 22.528 41.267 22.528-41.267 41.267-22.528-41.267-22.528z"/></svg>