<?xml version="1.0" standalone="no"?><!DOCTYPE svg PUBLIC "-//W3C//DTD SVG 1.1//EN" "http://www.w3.org/Graphics/SVG/1.1/DTD/svg11.dtd"><svg t="1771841563703" class="icon" viewBox="0 0 1024 1024" version="1.1" xmlns="http://www.w3.org/2000/svg" p-id="9939" xmlns:xlink="http://www.w3.org/1999/xlink" width="200" height="200"><path d="M377.1904 680.3968l-45.9264-159.0784-158.208-45.4656a42.496 42.496 0 0 1-13.1584-75.264l141.6192-102.912V127.5904a42.496 42.496 0 0 1 67.9936-33.6384L501.3504 190.976 662.528 133.12a42.496 42.496 0 0 1 56.1152 55.7568l-58.2656 160.7168L757.76 481.792a42.496 42.496 0 0 1-33.9968 67.584l-170.9568 3.4304-101.632 141.1584a42.496 42.496 0 0 1-73.984-13.568zM265.3696 420.9664l127.5392 37.4272 37.4272 127.5904L512 472.4224h139.4688l-78.6944-110.08 46.3872-127.5904L491.52 281.088 382.72 199.424 378.88 340.224 265.3696 420.9152z" p-id="9940"></path><path d="M892.9792 935.5264a42.496 42.496 0 0 1-30.208-12.3392l-255.1296-255.1296a42.7008 42.7008 0 0 1 60.416-60.416l255.1296 255.1808a42.496 42.496 0 0 1-30.208 72.704zM276.48 659.0976l-45.056 82.5344-82.5344 45.056 82.4832 45.056 45.056 82.5344 45.056-82.5344 82.5344-45.056-82.4832-45.056-45.056-82.5344z m255.1296 63.7952l-22.528 41.2672-41.2672 22.528 41.2672 22.528 22.528 41.2672 22.528-41.2672 41.2672-22.528-41.2672-22.528-22.528-41.2672z" p-id="9941"></path></svg>