<?xml version="1.0" standalone="no"?><!DOCTYPE svg PUBLIC "-//W3C//DTD SVG 1.1//EN" "http://www.w3.org/Graphics/SVG/1.1/DTD/svg11.dtd"><svg t="1771842991114" class="icon" viewBox="0 0 1024 1024" version="1.1" xmlns="http://www.w3.org/2000/svg" p-id="16980" xmlns:xlink="http://www.w3.org/1999/xlink" width="200" height="200"><path d="M1012.580871 484.17403l-101.353717-101.331456a78.647635 78.647635 0 0 1-23.017734-55.60764V180.313227c0-21.682082-17.652866-39.312687-39.334948-39.312687h-146.921707a78.714418 78.714418 0 0 1-55.60764-23.039995L539.893669 11.50909A39.112339 39.112339 0 0 0 512.089849 0.000223c-6.077216 0-17.786431 1.491478-27.80382 11.508867l-106.429194 106.451455a78.714418 78.714418 0 0 1-55.60764 23.039995H180.425226c-21.682082 0-39.334948 17.630605-39.334948 39.312687v141.823969c0 20.836169-8.281042 40.848687-23.017734 55.60764L11.621089 484.17403A39.179122 39.179122 0 0 0 0.112222 511.97785c0 6.099477 1.491478 17.786431 11.508867 27.803821l106.451455 106.451455a78.692157 78.692157 0 0 1 23.017734 55.60764v146.921707A39.401731 39.401731 0 0 0 180.425226 888.097421h146.921707c20.85843 0 40.848687 8.281042 55.60764 23.017734l101.331456 101.353717c10.03965 10.017389 21.726604 11.508867 27.80382 11.508867a39.179122 39.179122 0 0 0 27.826081-11.508867l101.309196-101.353717a78.736679 78.736679 0 0 1 55.629901-23.017734h152.019445a39.401731 39.401731 0 0 0 39.334948-39.334948v-152.019445c0-20.85843 8.281042-40.870948 23.017734-55.60764l101.331456-101.353717c10.03965-10.017389 11.531128-21.704343 11.531128-27.803821 0-6.077216-1.491478-17.786431-11.508867-27.80382z m-220.427083-144.762403a17.185388 17.185388 0 0 1-2.782608 4.518956L446.687429 743.023365a26.201038 26.201038 0 0 1-39.156861 0.690087l-170.67405-185.210394a21.837908 21.837908 0 0 1 7.257042-34.771471l14.024345-6.166259c8.614955-3.806608 18.610083-2.671304 26.178777 2.938434l119.496321 88.754067a26.201038 26.201038 0 0 0 33.435819-1.825391l311.563063-288.389502c7.568694-7.012172 18.5433-8.926607 28.048689-4.89739l6.143999 2.604521a17.274431 17.274431 0 0 1 9.149215 22.66156z" fill="#15BC83" p-id="16981"></path></svg>