<svg class="icon" viewBox="0 0 1024 1024" xmlns="http://www.w3.org/2000/svg" width="200" height="200"><path d="M1012.58 484.174 911.228 382.843a78.65 78.65 0 0 1-23.018-55.608V180.313c0-21.682-17.652-39.312-39.335-39.312H701.953a78.7 78.7 0 0 1-55.608-23.04L539.894 11.509A39.1 39.1 0 0 0 512.09 0c-6.077 0-17.787 1.492-27.804 11.51l-106.43 106.45A78.7 78.7 0 0 1 322.25 141H180.425c-21.682 0-39.335 17.631-39.335 39.313v141.824a78.73 78.73 0 0 1-23.017 55.608L11.62 484.174A39.18 39.18 0 0 0 .112 511.978c0 6.1 1.492 17.786 11.51 27.804l106.45 106.451a78.7 78.7 0 0 1 23.018 55.608v146.921a39.4 39.4 0 0 0 39.335 39.335h146.922a78.7 78.7 0 0 1 55.608 23.018l101.331 101.354c10.04 10.017 21.727 11.509 27.804 11.509a39.18 39.18 0 0 0 27.826-11.51l101.31-101.353a78.74 78.74 0 0 1 55.629-23.018h152.02a39.4 39.4 0 0 0 39.334-39.335V696.743a78.65 78.65 0 0 1 23.018-55.608l101.332-101.353c10.04-10.018 11.53-21.705 11.53-27.804 0-6.077-1.49-17.787-11.508-27.804M792.155 339.412a17.2 17.2 0 0 1-2.783 4.519L446.687 743.023a26.2 26.2 0 0 1-39.156.69l-170.674-185.21a21.838 21.838 0 0 1 7.257-34.771l14.024-6.167c8.615-3.806 18.61-2.671 26.179 2.939l119.496 88.754a26.2 26.2 0 0 0 33.436-1.826l311.563-288.39a26.21 26.21 0 0 1 28.049-4.896l6.144 2.604a17.274 17.274 0 0 1 9.149 22.662" fill="#15bc83"/></svg>