<svg class="icon" viewBox="0 0 1024 1024" xmlns="http://www.w3.org/2000/svg" width="200" height="200"><path d="M921.6 512c0 226.219-183.381 409.6-409.6 409.6S102.4 738.219 102.4 512 285.781 102.4 512 102.4 921.6 285.781 921.6 512M716.864 774.272 249.707 307.115A331.37 331.37 0 0 0 179.2 512c0 183.787 148.992 332.8 332.8 332.8 77.27 0 148.395-26.347 204.864-70.528m54.677-53.93A331.4 331.4 0 0 0 844.8 512c0-183.808-149.013-332.8-332.8-332.8a331.4 331.4 0 0 0-208.341 73.259z" fill="#ff3629" data-spm-anchor-id="a313x.search_index.0.i3.44793a81UAH2O7"/></svg>