<?xml version="1.0" standalone="no"?><!DOCTYPE svg PUBLIC "-//W3C//DTD SVG 1.1//EN" "http://www.w3.org/Graphics/SVG/1.1/DTD/svg11.dtd"><svg t="1771841032403" class="icon" viewBox="0 0 1024 1024" version="1.1" xmlns="http://www.w3.org/2000/svg" p-id="1569" xmlns:xlink="http://www.w3.org/1999/xlink" width="200" height="200"><path d="M921.6 512c0 226.218667-183.381333 409.6-409.6 409.6S102.4 738.218667 102.4 512 285.781333 102.4 512 102.4 921.6 285.781333 921.6 512z m-204.736 262.272L249.706667 307.114667A331.370667 331.370667 0 0 0 179.2 512c0 183.786667 148.992 332.8 332.8 332.8 77.269333 0 148.394667-26.346667 204.864-70.528z m54.677333-53.930667A331.413333 331.413333 0 0 0 844.8 512c0-183.808-149.013333-332.8-332.8-332.8a331.392 331.392 0 0 0-208.341333 73.258667l467.882666 467.882666z" fill="#FF3629" p-id="1570" data-spm-anchor-id="a313x.search_index.0.i3.44793a81UAH2O7"></path></svg>