<svg class="icon" viewBox="0 0 1024 1024" xmlns="http://www.w3.org/2000/svg" width="200" height="200"><path d="M938.856 638.776v270.3c0 27.41-22.211 49.634-49.621 49.634H134.792c-27.41 0-49.648-22.224-49.648-49.634v-270.3c0-27.41 22.224-49.634 49.635-49.634s49.634 22.224 49.634 49.634v220.665h655.174V638.776c0-27.41 22.224-49.634 49.634-49.634s49.635 22.224 49.635 49.634m-462.304 62.251a49.635 49.635 0 0 0 70.922 0L745.489 498.86c19.18-19.583 18.855-51.007-.733-70.19-19.587-19.177-51.017-18.856-70.197.73L561.634 544.687V114.924c0-27.41-22.224-49.634-49.634-49.634s-49.634 22.224-49.634 49.634V544.68L349.473 429.401c-19.18-19.583-50.59-19.903-70.186-.732-19.583 19.18-19.91 50.604-.73 70.19z" fill="#3cb60d"/></svg>