<?xml version="1.0" standalone="no"?><!DOCTYPE svg PUBLIC "-//W3C//DTD SVG 1.1//EN" "http://www.w3.org/Graphics/SVG/1.1/DTD/svg11.dtd"><svg t="1771841649882" class="icon" viewBox="0 0 1024 1024" version="1.1" xmlns="http://www.w3.org/2000/svg" p-id="12344" xmlns:xlink="http://www.w3.org/1999/xlink" width="200" height="200"><path d="M768.1 546c-22-22-22-57.6 0-79.5l75.2-75.2c22-22 57.6-22 79.5 0 22 22 22 57.6 0 79.5L847.6 546c-21.9 22-57.5 22-79.5 0z" fill="#200000" p-id="12345"></path><path d="M768.1 478c22-22 57.6-22 79.5 0l75.2 75.2c22 22 22 57.6 0 79.5-22 22-57.6 22-79.5 0l-75.2-75.2c-21.9-22-21.9-57.6 0-79.5z" fill="#200000" p-id="12346"></path><path d="M393.4 778c-46.6 0-93-13.9-137.9-41.4-35.1-21.5-69.4-51.2-102-88.5C98.8 585.4 68 523.4 66.7 520.8c-2.7-5.6-2.7-12.1 0-17.6 1.3-2.6 32-64.6 86.8-127.3 32.5-37.2 66.8-67 102-88.5 44.9-27.5 91.3-41.4 137.9-41.4 45.7 0 98.5 13.5 157 40.2 45.7 20.9 95.2 50 147.1 86.4 87.8 61.7 151.4 122.4 154.1 124.9 3.9 3.8 6.2 9 6.2 14.4s-2.2 10.7-6.2 14.4c-2.7 2.6-66.2 63.3-154.1 124.9-51.9 36.4-101.4 65.5-147.1 86.4-58.5 26.9-111.3 40.4-157 40.4z" fill="#5DC1CF" p-id="12347"></path><path d="M393.4 266c187.8 0 444.3 246 444.3 246S581.2 758 393.4 758 84.7 512 84.7 512s120.9-246 308.7-246m0-40c-50.3 0-100.2 14.9-148.3 44.3-36.9 22.5-72.7 53.6-106.6 92.4-56.5 64.7-88.4 129-89.7 131.7-5.5 11.1-5.5 24.2 0 35.3 1.3 2.7 33.2 67 89.7 131.7 33.9 38.8 69.7 69.9 106.6 92.4 48.1 29.4 98 44.3 148.3 44.3 48.6 0 104.2-14.2 165.3-42.1 46.9-21.4 97.4-51.1 150.3-88.2 89.1-62.5 153.7-124.3 156.4-126.9 7.9-7.5 12.3-18 12.3-28.9s-4.4-21.3-12.3-28.9c-2.7-2.6-67.4-64.3-156.4-126.9-52.9-37.1-103.4-66.8-150.3-88.2-61.1-27.8-116.7-42-165.3-42z" fill="#200000" p-id="12348"></path><path d="M232.3 466.8m-60 0a60 60 0 1 0 120 0 60 60 0 1 0-120 0Z" fill="#FFFFFF" p-id="12349"></path><path d="M232.3 466.8m-29.2 0a29.2 29.2 0 1 0 58.4 0 29.2 29.2 0 1 0-58.4 0Z" fill="#333333" p-id="12350"></path><path d="M417.7 476c-30.9 0-56-24.2-56-54s25.1-54 56-54c5.5 0 10 4.5 10 10s-4.5 10-10 10c-19.9 0-36 15.3-36 34s16.1 34 36 34c5.5 0 10 4.5 10 10s-4.5 10-10 10z" fill="#FFFFFF" p-id="12351"></path><path d="M417.7 566c-30.9 0-56-24.2-56-54s25.1-54 56-54c5.5 0 10 4.5 10 10s-4.5 10-10 10c-19.9 0-36 15.3-36 34s16.1 34 36 34c5.5 0 10 4.5 10 10s-4.5 10-10 10z" fill="#FFFFFF" p-id="12352"></path><path d="M417.7 656c-30.9 0-56-24.2-56-54s25.1-54 56-54c5.5 0 10 4.5 10 10s-4.5 10-10 10c-19.9 0-36 15.3-36 34s16.1 34 36 34c5.5 0 10 4.5 10 10s-4.5 10-10 10z" fill="#FFFFFF" p-id="12353"></path><path d="M546.9 521c-30.9 0-56-24.2-56-54s25.1-54 56-54c5.5 0 10 4.5 10 10s-4.5 10-10 10c-19.9 0-36 15.3-36 34s16.1 34 36 34c5.5 0 10 4.5 10 10s-4.4 10-10 10z" fill="#FFFFFF" p-id="12354"></path><path d="M546.9 611c-30.9 0-56-24.2-56-54s25.1-54 56-54c5.5 0 10 4.5 10 10s-4.5 10-10 10c-19.9 0-36 15.3-36 34s16.1 34 36 34c5.5 0 10 4.5 10 10s-4.4 10-10 10z" fill="#FFFFFF" p-id="12355"></path><path d="M676.2 566c-30.9 0-56-24.2-56-54s25.1-54 56-54c5.5 0 10 4.5 10 10s-4.5 10-10 10c-19.9 0-36 15.3-36 34s16.1 34 36 34c5.5 0 10 4.5 10 10s-4.5 10-10 10z" fill="#FFFFFF" p-id="12356"></path></svg>