<svg height="800" width="800" xmlns="http://www.w3.org/2000/svg" viewBox="0 0 32 32" fill="#2ecc71" xml:space="preserve"><path d="M7 28H3c-.6 0-1-.4-1-1s.4-1 1-1h4c.6 0 1 .4 1 1s-.4 1-1 1"/><path d="M9 30c-1.7 0-3-1.3-3-3s1.3-3 3-3 3 1.3 3 3-1.3 3-3 3m20-4H13.9c.1.3.1.7.1 1s0 .7-.1 1H29c.6 0 1-.4 1-1s-.4-1-1-1M26 3H6C3.2 3 1 5.2 1 8v10c0 2.8 2.2 5 5 5h20c2.8 0 5-2.2 5-5V8c0-2.8-2.2-5-5-5m-5.9 11.7-5 3c-.3.2-.7.3-1 .3s-.7-.1-1-.3c-.6-.4-1-1-1-1.7v-6c0-.7.4-1.3 1-1.7s1.4-.3 2 0l5 3c.6.4.9 1 .9 1.7s-.4 1.3-.9 1.7"/></svg>