<?xml version="1.0" standalone="no"?><!DOCTYPE svg PUBLIC "-//W3C//DTD SVG 1.1//EN" "http://www.w3.org/Graphics/SVG/1.1/DTD/svg11.dtd"><svg t="1771841508295" class="icon" viewBox="0 0 1295 1024" version="1.1" xmlns="http://www.w3.org/2000/svg" p-id="8913" xmlns:xlink="http://www.w3.org/1999/xlink" width="252.9296875" height="200"><path d="M879.246622 0c31.860341 0 57.793177 25.932836 57.793177 57.854922v138.740671L1224.276827 22.722104a24.697939 24.697939 0 0 1 37.417377 21.054993v336.756395A433.695806 433.695806 0 1 0 582.562632 919.998221H57.854922A57.793177 57.793177 0 0 1 0 862.266789V57.854922C0 25.932836 25.932836 0 57.854922 0h821.329955zM448.946783 106.324627H267.231698a142.321872 142.321872 0 0 0-2.346304 284.705489h184.123134a142.321872 142.321872 0 1 0 0-284.705489z" fill="#52C41A" p-id="8914"></path><path d="M924.690829 283.038379a370.469082 370.469082 0 1 0 0.061745 740.999909 370.469082 370.469082 0 0 0 0-740.938164z" fill="#52C41A" p-id="8915"></path><path d="M865.662755 812.809166a35.379797 35.379797 0 1 1-70.821339 0v-318.60341a35.379797 35.379797 0 1 1 70.821339 0v318.60341z m188.877487 0a35.379797 35.379797 0 1 1-70.821339 0v-318.60341a35.379797 35.379797 0 1 1 70.821339 0v318.60341z" fill="#FFFFFF" p-id="8916"></path></svg>